<svg id="kity_svg_6" xmlns="http://www.w3.org/2000/svg" xmlns:xlink="http://www.w3.org/1999/xlink" version="1.1" width="638" height="534" style="background: rgb(251, 251, 251); visibility: visible;" viewBox="0 0 638 534"><defs id="kity_defs_7"><linearGradient id="kity_linearGradient_17" x1="0" y1="0" x2="0" y2="1"><stop id="kity_stop_18" offset="0" stop-color="rgb(255, 255, 255)"></stop><stop id="kity_stop_19" offset="1" stop-color="rgb(204, 204, 204)"></stop></linearGradient><marker id="kity_marker_2" orient="auto" refX="6" refY="0" viewBox="-7 -7 14 14" markerWidth="7" markerHeight="7" markerUnits="userSpaceOnUse"><path id="kity_path_3" fill="rgb(115, 161, 191)" stroke="none" d="M6,0A6,6,0,1,1,-6,0A6,6,0,1,1,6,0"></path></marker></defs><g id="kity_g_8"><g id="minder1" text-rendering="optimize-speed"><g id="minder_connect_group1"><path id="kity_path_31" fill="none" stroke="rgb(115, 161, 191)" stroke-width="1" d="M117,87.5A197.5,54,0,0,1,314.5,33.5"></path><path id="kity_path_39" fill="none" stroke="rgb(115, 161, 191)" stroke-width="1" d="M117,87.5A60.5,231,0,0,0,177.5,318.5"></path><path id="kity_path_124" fill="none" stroke="rgb(115, 161, 191)" stroke-width="1" d="M424.5,318.5C439.5,318.5,439.5,150.5,454.5,150.5L545.5,150.5"></path><path id="kity_path_125" fill="none" stroke="rgb(115, 161, 191)" stroke-width="1" d="M424.5,318.5C439.5,318.5,439.5,202.5,454.5,202.5L545.5,202.5"></path><path id="kity_path_126" fill="none" stroke="rgb(115, 161, 191)" stroke-width="1" d="M424.5,318.5C439.5,318.5,439.5,254.5,454.5,254.5L593.5,254.5"></path><path id="kity_path_127" fill="none" stroke="rgb(115, 161, 191)" stroke-width="1" d="M424.5,318.5C439.5,318.5,439.5,306.5,454.5,306.5L546.5,306.5"></path><path id="kity_path_128" fill="none" stroke="rgb(115, 161, 191)" stroke-width="1" d="M424.5,318.5C439.5,318.5,439.5,358.5,454.5,358.5L556.5,358.5"></path><path id="kity_path_129" fill="none" stroke="rgb(115, 161, 191)" stroke-width="1" d="M424.5,318.5C439.5,318.5,439.5,410.5,454.5,410.5L618.5,410.5"></path><path id="kity_path_130" fill="none" stroke="rgb(115, 161, 191)" stroke-width="1" d="M424.5,318.5C439.5,318.5,439.5,462.5,454.5,462.5L557.5,462.5"></path><path id="kity_path_131" fill="none" stroke="rgb(115, 161, 191)" stroke-width="1" d="M424.5,318.5C439.5,318.5,439.5,514.5,454.5,514.5L568.5,514.5"></path></g><g id="minder_node1"><path id="node_outline1" fill="rgb(115, 161, 191)" stroke="rgb(115, 161, 191)" d="M25.5,67.5h183a5,5,0,0,1,5,5v30a5,5,0,0,1,-5,5h-183a5,5,0,0,1,-5,-5v-30a5,5,0,0,1,5,-5z" stroke-width="3"></path><g id="node_text1" fill="white"><text id="kity_text_22" text-rendering="inherit" font-size="16" dy=".8em" y="77.09999990463257" x="44.5">为什么需要性能测试</text></g></g><g id="kity_g_14" display="none"><path id="kity_path_15" fill="rgba(0, 92, 153, 0.5)" stroke="none" d="M333.5,105.5h202v20h-202z"></path><path id="kity_path_16" fill="none" stroke="rgb(0, 76, 128)" d="M333.5,105.5L535.5,105.5" stroke-width="1"></path></g><g id="minder_node2" opacity="1"><g id="node_expander1" style="cursor: pointer;" display="none"><path id="kity_path_36" fill="white" stroke="gray" d="M315.5,33.5A6,6,0,1,1,303.5,33.5A6,6,0,1,1,315.5,33.5"></path><path id="kity_path_37" fill="none" stroke="gray"></path></g><path id="node_outline2" fill="rgb(238, 243, 246)" stroke="rgb(115, 161, 191)" d="M319.5,20.5h196a3,3,0,0,1,3,3v20a3,3,0,0,1,-3,3h-196a3,3,0,0,1,-3,-3v-20a3,3,0,0,1,3,-3z" stroke-width="1"></path><g id="node_text2" fill="black"><text id="kity_text_33" text-rendering="inherit" font-size="14" dy=".8em" y="24.40000009536743" x="336.5">1、基于网络的分布式应用</text></g></g><g id="minder_node3" opacity="1"><g id="node_expander2" style="cursor: pointer;"><path id="kity_path_44" fill="white" stroke="gray" d="M437.5,318.5A6,6,0,1,1,425.5,318.5A6,6,0,1,1,437.5,318.5"></path><path id="kity_path_45" fill="none" stroke="gray" d="M427,318.5L436,318.5"></path></g><path id="node_outline3" fill="rgb(238, 243, 246)" stroke="rgb(115, 161, 191)" d="M182.5,305.5h239a3,3,0,0,1,3,3v20a3,3,0,0,1,-3,3h-239a3,3,0,0,1,-3,-3v-20a3,3,0,0,1,3,-3z" stroke-width="1"></path><g id="node_text3" fill="black"><text id="kity_text_41" text-rendering="inherit" font-size="14" dy=".8em" y="309.40000009536743" x="199.5">2、用户数量增加：系统负载挑战</text></g></g><g id="kity_g_12" display="none"><path id="kity_path_13" fill="none" stroke="rgb(66, 94, 112)" d="M336.5,74.5h196a3,3,0,0,1,3,3v20a3,3,0,0,1,-3,3h-196a3,3,0,0,1,-3,-3v-20a3,3,0,0,1,3,-3z" stroke-width="5"></path></g><g id="minder_node4"><g id="node_expander3" style="cursor: pointer;" display="none"><path id="kity_path_52" fill="white" stroke="gray" d="M464.5,136.5A6,6,0,1,1,452.5,136.5A6,6,0,1,1,464.5,136.5"></path><path id="kity_path_53" fill="none" stroke="gray"></path></g><path id="node_outline4" fill="none" stroke="none" d="M469.5,125.5h71a5,5,0,0,1,5,5v12a5,5,0,0,1,-5,5h-71a5,5,0,0,1,-5,-5v-12a5,5,0,0,1,5,-5z" stroke-width="3"></path><g id="node_text4" fill="black"><text id="kity_text_49" text-rendering="inherit" font-size="12" dy=".8em" y="128.70000004768372" x="474.5">CPU够用不</text></g></g><g id="minder_node6"><g id="node_expander5" style="cursor: pointer;" display="none"><path id="kity_path_68" fill="white" stroke="gray" d="M464.5,188.5A6,6,0,1,1,452.5,188.5A6,6,0,1,1,464.5,188.5"></path><path id="kity_path_69" fill="none" stroke="gray"></path></g><path id="node_outline6" fill="none" stroke="none" d="M469.5,177.5h71a5,5,0,0,1,5,5v12a5,5,0,0,1,-5,5h-71a5,5,0,0,1,-5,-5v-12a5,5,0,0,1,5,-5z" stroke-width="3"></path><g id="node_text6" fill="black"><text id="kity_text_65" text-rendering="inherit" font-size="12" dy=".8em" y="180.70000004768372" x="474.5">内存够用不</text></g></g><g id="minder_node7"><g id="node_expander6" style="cursor: pointer;" display="none"><path id="kity_path_76" fill="white" stroke="gray" d="M464.5,240.5A6,6,0,1,1,452.5,240.5A6,6,0,1,1,464.5,240.5"></path><path id="kity_path_77" fill="none" stroke="gray"></path></g><path id="node_outline7" fill="none" stroke="none" d="M469.5,229.5h119a5,5,0,0,1,5,5v12a5,5,0,0,1,-5,5h-119a5,5,0,0,1,-5,-5v-12a5,5,0,0,1,5,-5z" stroke-width="3"></path><g id="node_text7" fill="black"><text id="kity_text_73" text-rendering="inherit" font-size="12" dy=".8em" y="232.70000004768372" x="474.5">硬盘速度是否跟得上</text></g></g><g id="minder_node8"><g id="node_expander7" style="cursor: pointer;" display="none"><path id="kity_path_84" fill="white" stroke="gray" d="M464.5,292.5A6,6,0,1,1,452.5,292.5A6,6,0,1,1,464.5,292.5"></path><path id="kity_path_85" fill="none" stroke="gray"></path></g><path id="node_outline8" fill="none" stroke="none" d="M469.5,281.5h72a5,5,0,0,1,5,5v12a5,5,0,0,1,-5,5h-72a5,5,0,0,1,-5,-5v-12a5,5,0,0,1,5,-5z" stroke-width="3"></path><g id="node_text8" fill="black"><text id="kity_text_81" text-rendering="inherit" font-size="12" dy=".8em" y="284.7000000476837" x="474.5">带宽够用不</text></g></g><g id="minder_node9"><g id="node_expander8" style="cursor: pointer;" display="none"><path id="kity_path_92" fill="white" stroke="gray" d="M464.5,344.5A6,6,0,1,1,452.5,344.5A6,6,0,1,1,464.5,344.5"></path><path id="kity_path_93" fill="none" stroke="gray"></path></g><path id="node_outline9" fill="none" stroke="none" d="M469.5,333.5h82a5,5,0,0,1,5,5v12a5,5,0,0,1,-5,5h-82a5,5,0,0,1,-5,-5v-12a5,5,0,0,1,5,-5z" stroke-width="3"></path><g id="node_text9" fill="black"><text id="kity_text_89" text-rendering="inherit" font-size="12" dy=".8em" y="336.7000000476837" x="474.5">内存型数据库</text></g></g><g id="minder_node10"><g id="node_expander9" style="cursor: pointer;" display="none"><path id="kity_path_100" fill="white" stroke="gray" d="M464.5,396.5A6,6,0,1,1,452.5,396.5A6,6,0,1,1,464.5,396.5"></path><path id="kity_path_101" fill="none" stroke="gray"></path></g><path id="node_outline10" fill="none" stroke="none" d="M469.5,385.5h144a5,5,0,0,1,5,5v12a5,5,0,0,1,-5,5h-144a5,5,0,0,1,-5,-5v-12a5,5,0,0,1,5,-5z" stroke-width="3"></path><g id="node_text10" fill="black"><text id="kity_text_97" text-rendering="inherit" font-size="12" dy=".8em" y="388.7000000476837" x="474.5">能够承受的并发用户数量</text></g></g><g id="minder_node11"><g id="node_expander10" style="cursor: pointer;" display="none"><path id="kity_path_114" fill="white" stroke="gray" d="M464.5,448.5A6,6,0,1,1,452.5,448.5A6,6,0,1,1,464.5,448.5"></path><path id="kity_path_115" fill="none" stroke="gray"></path></g><path id="node_outline11" fill="none" stroke="none" d="M469.5,437.5h83a5,5,0,0,1,5,5v12a5,5,0,0,1,-5,5h-83a5,5,0,0,1,-5,-5v-12a5,5,0,0,1,5,-5z" stroke-width="3"></path><g id="node_text11" fill="black"><text id="kity_text_111" text-rendering="inherit" font-size="12" dy=".8em" y="440.7000000476837" x="474.5">系统是否稳定</text></g></g><g id="minder_node12"><g id="node_expander11" style="cursor: pointer;" display="none"><path id="kity_path_122" fill="white" stroke="gray" d="M464.5,500.5A6,6,0,1,1,452.5,500.5A6,6,0,1,1,464.5,500.5"></path><path id="kity_path_123" fill="none" stroke="gray"></path></g><path id="node_outline12" fill="none" stroke="none" d="M469.5,489.5h94a5,5,0,0,1,5,5v12a5,5,0,0,1,-5,5h-94a5,5,0,0,1,-5,-5v-12a5,5,0,0,1,5,-5z" stroke-width="3"></path><g id="node_text12" fill="black"><text id="kity_text_119" text-rendering="inherit" font-size="12" dy=".8em" y="492.7000000476837" x="474.5">响应时间快不快</text></g></g></g></g></svg>