<svg id="kity_svg_6" xmlns="http://www.w3.org/2000/svg" xmlns:xlink="http://www.w3.org/1999/xlink" version="1.1" width="737" height="460" style="background: rgb(251, 251, 251); visibility: visible;" viewBox="0 0 737 460"><defs id="kity_defs_7"><linearGradient id="kity_linearGradient_17" x1="0" y1="0" x2="0" y2="1"><stop id="kity_stop_18" offset="0" stop-color="rgb(255, 255, 255)"></stop><stop id="kity_stop_19" offset="1" stop-color="rgb(204, 204, 204)"></stop></linearGradient><marker id="kity_marker_2" orient="auto" refX="6" refY="0" viewBox="-7 -7 14 14" markerWidth="7" markerHeight="7" markerUnits="userSpaceOnUse"><path id="kity_path_3" fill="rgb(115, 191, 118)" stroke="none" d="M6,0A6,6,0,1,1,-6,0A6,6,0,1,1,6,0"></path></marker></defs><g id="kity_g_8"><g id="minder1" text-rendering="optimize-speed"><g id="minder_connect_group1"><path id="kity_path_31" fill="none" stroke="rgb(115, 191, 118)" stroke-width="1" d="M89,173.5A84.5,140,0,0,1,173.5,33.5"></path><path id="kity_path_39" fill="none" stroke="rgb(115, 191, 118)" stroke-width="1" d="M89,173.5A84.5,98,0,0,1,173.5,75.5"></path><path id="kity_path_47" fill="none" stroke="rgb(115, 191, 118)" stroke-width="1" d="M89,173.5A84.5,56,0,0,1,173.5,117.5"></path><path id="kity_path_55" fill="none" stroke="rgb(115, 191, 118)" stroke-width="1" d="M89,173.5A84.5,14,0,0,1,173.5,159.5"></path><path id="kity_path_63" fill="none" stroke="rgb(115, 191, 118)" stroke-width="1" d="M89,173.5A84.5,141,0,0,0,173.5,314.5"></path><path id="kity_path_134" fill="none" stroke="rgb(115, 191, 118)" stroke-width="1" d="M307.5,314.5C315.5,314.5,315.5,197.5,323.5,197.5"></path><path id="kity_path_135" fill="none" stroke="rgb(115, 191, 118)" stroke-width="1" d="M307.5,314.5C315.5,314.5,315.5,223.5,323.5,223.5"></path><path id="kity_path_136" fill="none" stroke="rgb(115, 191, 118)" stroke-width="1" d="M307.5,314.5C315.5,314.5,315.5,249.5,323.5,249.5"></path><path id="kity_path_137" fill="none" stroke="rgb(115, 191, 118)" stroke-width="1" d="M307.5,314.5C315.5,314.5,315.5,275.5,323.5,275.5"></path><path id="kity_path_138" fill="none" stroke="rgb(115, 191, 118)" stroke-width="1" d="M307.5,314.5C315.5,314.5,315.5,301.5,323.5,301.5"></path><path id="kity_path_139" fill="none" stroke="rgb(115, 191, 118)" stroke-width="1" d="M307.5,314.5C315.5,314.5,315.5,327.5,323.5,327.5"></path><path id="kity_path_140" fill="none" stroke="rgb(115, 191, 118)" stroke-width="1" d="M307.5,314.5C315.5,314.5,315.5,353.5,323.5,353.5"></path><path id="kity_path_142" fill="none" stroke="rgb(115, 191, 118)" stroke-width="1" d="M307.5,314.5C315.5,314.5,315.5,379.5,323.5,379.5"></path><path id="kity_path_150" fill="none" stroke="rgb(115, 191, 118)" stroke-width="1" d="M307.5,314.5C315.5,314.5,315.5,405.5,323.5,405.5"></path><path id="kity_path_166" fill="none" stroke="rgb(115, 191, 118)" stroke-width="1" d="M307.5,314.5C315.5,314.5,315.5,431.5,323.5,431.5"></path></g><g id="minder_node1"><path id="node_outline1" fill="rgb(115, 191, 118)" stroke="rgb(115, 191, 118)" d="M25.5,159.5h127a5,5,0,0,1,5,5v18a5,5,0,0,1,-5,5h-127a5,5,0,0,1,-5,-5v-18a5,5,0,0,1,5,-5z" stroke-width="3"></path><g id="node_text1" fill="white"><text id="kity_text_22" text-rendering="inherit" font-size="16" dy=".8em" y="163.09999990463257" x="32.5">性能测试关注点</text></g></g><g id="kity_g_12" display="none"><path id="kity_path_13" fill="none" stroke="none" d="M32.5,173.5h0v0h0z"></path></g><g id="kity_g_14" display="none"><path id="kity_path_15" fill="none" stroke="none" d="M32.5,173.5h0v0h0z"></path><path id="kity_path_16" fill="none" stroke="none"></path></g><g id="minder_node2" opacity="1"><g id="node_expander1" style="cursor: pointer;" display="none"><path id="kity_path_36" fill="white" stroke="gray" d="M174.5,33.5A6,6,0,1,1,162.5,33.5A6,6,0,1,1,174.5,33.5"></path><path id="kity_path_37" fill="none" stroke="gray"></path></g><path id="node_outline2" fill="rgb(238, 246, 238)" stroke="rgb(115, 191, 118)" d="M178.5,20.5h267a3,3,0,0,1,3,3v20a3,3,0,0,1,-3,3h-267a3,3,0,0,1,-3,-3v-20a3,3,0,0,1,3,-3z" stroke-width="1"></path><g id="node_text2" fill="black"><text id="kity_text_33" text-rendering="inherit" font-size="14" dy=".8em" y="24.40000009536743" x="195.5">1、更好地理解性能测试的作用和价值</text></g></g><g id="minder_node3" opacity="1"><g id="node_expander2" style="cursor: pointer;" display="none"><path id="kity_path_44" fill="white" stroke="gray" d="M174.5,75.5A6,6,0,1,1,162.5,75.5A6,6,0,1,1,174.5,75.5"></path><path id="kity_path_45" fill="none" stroke="gray"></path></g><path id="node_outline3" fill="rgb(238, 246, 238)" stroke="rgb(115, 191, 118)" d="M178.5,62.5h239a3,3,0,0,1,3,3v20a3,3,0,0,1,-3,3h-239a3,3,0,0,1,-3,-3v-20a3,3,0,0,1,3,-3z" stroke-width="1"></path><g id="node_text3" fill="black"><text id="kity_text_41" text-rendering="inherit" font-size="14" dy=".8em" y="66.40000009536743" x="195.5">2、软件测试的作用和价值的理解</text></g></g><g id="minder_node4" opacity="1"><g id="node_expander3" style="cursor: pointer;" display="none"><path id="kity_path_52" fill="white" stroke="gray" d="M174.5,117.5A6,6,0,1,1,162.5,117.5A6,6,0,1,1,174.5,117.5"></path><path id="kity_path_53" fill="none" stroke="gray"></path></g><path id="node_outline4" fill="rgb(238, 246, 238)" stroke="rgb(115, 191, 118)" d="M178.5,104.5h536a3,3,0,0,1,3,3v20a3,3,0,0,1,-3,3h-536a3,3,0,0,1,-3,-3v-20a3,3,0,0,1,3,-3z" stroke-width="1"></path><g id="node_text4" fill="black"><text id="kity_text_49" text-rendering="inherit" font-size="14" dy=".8em" y="108.40000009536743" x="195.5">3、产品角度：研发过程，尽早的发现问题，尽快的修正它.功能完善，稳定可靠。</text></g></g><g id="minder_node5"><g id="node_expander4" style="cursor: pointer;" display="none"><path id="kity_path_60" fill="white" stroke="gray" d="M174.5,159.5A6,6,0,1,1,162.5,159.5A6,6,0,1,1,174.5,159.5"></path><path id="kity_path_61" fill="none" stroke="gray"></path></g><path id="node_outline5" fill="rgb(238, 246, 238)" stroke="rgb(115, 191, 118)" d="M178.5,146.5h394a3,3,0,0,1,3,3v20a3,3,0,0,1,-3,3h-394a3,3,0,0,1,-3,-3v-20a3,3,0,0,1,3,-3z" stroke-width="1"></path><g id="node_text5" fill="black"><text id="kity_text_57" text-rendering="inherit" font-size="14" dy=".8em" y="150.40000009536743" x="195.5">4、用户角度：用户的使用体验，用户反馈收集和持续改善</text></g></g><g id="minder_node6" opacity="1"><g id="node_expander5" style="cursor: pointer;"><path id="kity_path_68" fill="white" stroke="gray" d="M174.5,314.5A6,6,0,1,1,162.5,314.5A6,6,0,1,1,174.5,314.5"></path><path id="kity_path_69" fill="none" stroke="gray" d="M164,314.5L173,314.5"></path></g><path id="node_outline6" fill="rgb(238, 246, 238)" stroke="rgb(115, 191, 118)" d="M178.5,301.5h126a3,3,0,0,1,3,3v20a3,3,0,0,1,-3,3h-126a3,3,0,0,1,-3,-3v-20a3,3,0,0,1,3,-3z" stroke-width="1"></path><g id="node_text6" fill="black"><text id="kity_text_65" text-rendering="inherit" font-size="14" dy=".8em" y="305.40000009536743" x="195.5">5、性能测试：</text></g></g><g id="minder_node8"><g id="node_expander7" style="cursor: pointer;" display="none"><path id="kity_path_84" fill="white" stroke="gray" d="M323.5,197.5A6,6,0,1,1,311.5,197.5A6,6,0,1,1,323.5,197.5"></path><path id="kity_path_85" fill="none" stroke="gray"></path></g><path id="node_outline8" fill="none" stroke="none" d="M328.5,188.5h188a5,5,0,0,1,5,5v8a5,5,0,0,1,-5,5h-188a5,5,0,0,1,-5,-5v-8a5,5,0,0,1,5,-5z" stroke-width="3"></path><g id="node_text8" fill="black"><text id="kity_text_81" text-rendering="inherit" font-size="12" dy=".8em" y="189.70000004768372" x="328.5">1、响应时间，服务器端的处理速度</text></g></g><g id="minder_node9"><g id="node_expander8" style="cursor: pointer;" display="none"><path id="kity_path_92" fill="white" stroke="gray" d="M323.5,223.5A6,6,0,1,1,311.5,223.5A6,6,0,1,1,323.5,223.5"></path><path id="kity_path_93" fill="none" stroke="gray"></path></g><path id="node_outline9" fill="none" stroke="none" d="M328.5,214.5h152a5,5,0,0,1,5,5v8a5,5,0,0,1,-5,5h-152a5,5,0,0,1,-5,-5v-8a5,5,0,0,1,5,-5z" stroke-width="3"></path><g id="node_text9" fill="black"><text id="kity_text_89" text-rendering="inherit" font-size="12" dy=".8em" y="215.70000004768372" x="328.5">2、服务器端的资源使用情况</text></g></g><g id="minder_node10"><g id="node_expander9" style="cursor: pointer;" display="none"><path id="kity_path_100" fill="white" stroke="gray" d="M323.5,249.5A6,6,0,1,1,311.5,249.5A6,6,0,1,1,323.5,249.5"></path><path id="kity_path_101" fill="none" stroke="gray"></path></g><path id="node_outline10" fill="none" stroke="none" d="M328.5,240.5h152a5,5,0,0,1,5,5v8a5,5,0,0,1,-5,5h-152a5,5,0,0,1,-5,-5v-8a5,5,0,0,1,5,-5z" stroke-width="3"></path><g id="node_text10" fill="black"><text id="kity_text_97" text-rendering="inherit" font-size="12" dy=".8em" y="241.70000004768372" x="328.5">3、数据库端的资源使用情况</text></g></g><g id="minder_node11"><g id="node_expander10" style="cursor: pointer;" display="none"><path id="kity_path_108" fill="white" stroke="gray" d="M323.5,275.5A6,6,0,1,1,311.5,275.5A6,6,0,1,1,323.5,275.5"></path><path id="kity_path_109" fill="none" stroke="gray"></path></g><path id="node_outline11" fill="none" stroke="none" d="M328.5,266.5h129a5,5,0,0,1,5,5v8a5,5,0,0,1,-5,5h-129a5,5,0,0,1,-5,-5v-8a5,5,0,0,1,5,-5z" stroke-width="3"></path><g id="node_text11" fill="black"><text id="kity_text_105" text-rendering="inherit" font-size="12" dy=".8em" y="267.7000000476837" x="328.5">4、最大的访问用户数量</text></g></g><g id="minder_node12"><g id="node_expander11" style="cursor: pointer;" display="none"><path id="kity_path_116" fill="white" stroke="gray" d="M323.5,301.5A6,6,0,1,1,311.5,301.5A6,6,0,1,1,323.5,301.5"></path><path id="kity_path_117" fill="none" stroke="gray"></path></g><path id="node_outline12" fill="none" stroke="none" d="M328.5,292.5h116a5,5,0,0,1,5,5v8a5,5,0,0,1,-5,5h-116a5,5,0,0,1,-5,-5v-8a5,5,0,0,1,5,-5z" stroke-width="3"></path><g id="node_text12" fill="black"><text id="kity_text_113" text-rendering="inherit" font-size="12" dy=".8em" y="293.7000000476837" x="328.5">5、最大业务处理数量</text></g></g><g id="minder_node13"><g id="node_expander12" style="cursor: pointer;" display="none"><path id="kity_path_124" fill="white" stroke="gray" d="M323.5,327.5A6,6,0,1,1,311.5,327.5A6,6,0,1,1,323.5,327.5"></path><path id="kity_path_125" fill="none" stroke="gray"></path></g><path id="node_outline13" fill="none" stroke="none" d="M328.5,318.5h191a5,5,0,0,1,5,5v8a5,5,0,0,1,-5,5h-191a5,5,0,0,1,-5,-5v-8a5,5,0,0,1,5,-5z" stroke-width="3"></path><g id="node_text13" fill="black"><text id="kity_text_121" text-rendering="inherit" font-size="12" dy=".8em" y="319.7000000476837" x="328.5">6、考察系统能否支持7*24小时运转</text></g></g><g id="minder_node14"><g id="node_expander13" style="cursor: pointer;" display="none"><path id="kity_path_132" fill="white" stroke="gray" d="M323.5,353.5A6,6,0,1,1,311.5,353.5A6,6,0,1,1,323.5,353.5"></path><path id="kity_path_133" fill="none" stroke="gray"></path></g><path id="node_outline14" fill="none" stroke="none" d="M328.5,344.5h200a5,5,0,0,1,5,5v8a5,5,0,0,1,-5,5h-200a5,5,0,0,1,-5,-5v-8a5,5,0,0,1,5,-5z" stroke-width="3"></path><g id="node_text14" fill="black"><text id="kity_text_129" text-rendering="inherit" font-size="12" dy=".8em" y="345.7000000476837" x="328.5">7、内存资源，线程资源能否正常回收</text></g></g><g id="minder_node15"><g id="node_expander14" style="cursor: pointer;" display="none"><path id="kity_path_147" fill="white" stroke="gray" d="M323.5,379.5A6,6,0,1,1,311.5,379.5A6,6,0,1,1,323.5,379.5"></path><path id="kity_path_148" fill="none" stroke="gray"></path></g><path id="node_outline15" fill="none" stroke="none" d="M328.5,370.5h138a5,5,0,0,1,5,5v8a5,5,0,0,1,-5,5h-138a5,5,0,0,1,-5,-5v-8a5,5,0,0,1,5,-5z" stroke-width="3"></path><g id="node_text15" fill="black"><text id="kity_text_144" text-rendering="inherit" font-size="12" dy=".8em" y="371.7000000476837" x="328.5">8、代码：算法，SQL语句</text></g></g><g id="minder_node16"><g id="node_expander15" style="cursor: pointer;" display="none"><path id="kity_path_155" fill="white" stroke="gray" d="M323.5,405.5A6,6,0,1,1,311.5,405.5A6,6,0,1,1,323.5,405.5"></path><path id="kity_path_156" fill="none" stroke="gray"></path></g><path id="node_outline16" fill="none" stroke="none" d="M328.5,396.5h116a5,5,0,0,1,5,5v8a5,5,0,0,1,-5,5h-116a5,5,0,0,1,-5,-5v-8a5,5,0,0,1,5,-5z" stroke-width="3"></path><g id="node_text16" fill="black"><text id="kity_text_152" text-rendering="inherit" font-size="12" dy=".8em" y="397.7000000476837" x="328.5">9、稳定性：可恢复性</text></g></g><g id="minder_node18"><g id="node_expander17" style="cursor: pointer;" display="none"><path id="kity_path_171" fill="white" stroke="gray" d="M323.5,431.5A6,6,0,1,1,311.5,431.5A6,6,0,1,1,323.5,431.5"></path><path id="kity_path_172" fill="none" stroke="gray"></path></g><path id="node_outline18" fill="none" stroke="none" d="M328.5,422.5h122a5,5,0,0,1,5,5v8a5,5,0,0,1,-5,5h-122a5,5,0,0,1,-5,-5v-8a5,5,0,0,1,5,-5z" stroke-width="3"></path><g id="node_text18" fill="black"><text id="kity_text_168" text-rendering="inherit" font-size="12" dy=".8em" y="423.7000000476837" x="328.5">集群、云计算、虚拟化</text></g></g></g></g></svg>