<svg id="kity_svg_6" xmlns="http://www.w3.org/2000/svg" xmlns:xlink="http://www.w3.org/1999/xlink" version="1.1" width="864" height="486" style="background: rgb(251, 251, 251); visibility: visible;" viewBox="0 0 864 486"><defs id="kity_defs_7"><linearGradient id="kity_linearGradient_17" x1="0" y1="0" x2="0" y2="1"><stop id="kity_stop_18" offset="0" stop-color="rgb(255, 255, 255)"></stop><stop id="kity_stop_19" offset="1" stop-color="rgb(204, 204, 204)"></stop></linearGradient><marker id="kity_marker_2" orient="auto" refX="6" refY="0" viewBox="-7 -7 14 14" markerWidth="7" markerHeight="7" markerUnits="userSpaceOnUse"><path id="kity_path_3" fill="rgb(115, 161, 191)" stroke="none" d="M6,0A6,6,0,1,1,-6,0A6,6,0,1,1,6,0"></path></marker></defs><g id="kity_g_8"><g id="minder1" text-rendering="geometricPrecision"><g id="minder_connect_group1"><path id="kity_path_31" fill="none" stroke="rgb(115, 161, 191)" stroke-width="1" d="M109.5,202.5A207,0,0,0,1,316.5,202.5"></path><path id="kity_path_39" fill="none" stroke="rgb(115, 161, 191)" stroke-width="1" d="M416.5,202.5C431.5,202.5,431.5,45.5,446.5,45.5L681.5,45.5"></path><path id="kity_path_47" fill="none" stroke="rgb(115, 161, 191)" stroke-width="1" d="M416.5,202.5C431.5,202.5,431.5,97.5,446.5,97.5L769.5,97.5"></path><path id="kity_path_55" fill="none" stroke="rgb(115, 161, 191)" stroke-width="1" d="M416.5,202.5C431.5,202.5,431.5,149.5,446.5,149.5L734.5,149.5"></path><path id="kity_path_63" fill="none" stroke="rgb(115, 161, 191)" stroke-width="1" d="M416.5,202.5C431.5,202.5,431.5,206.5,446.5,206.5L839.5,206.5"></path><path id="kity_path_74" fill="none" stroke="rgb(115, 161, 191)" stroke-width="1" d="M416.5,202.5C431.5,202.5,431.5,258.5,446.5,258.5L844.5,258.5"></path><path id="kity_path_82" fill="none" stroke="rgb(115, 161, 191)" stroke-width="1" d="M416.5,202.5C431.5,202.5,431.5,388.5,446.5,388.5L604.5,388.5"></path><path id="kity_path_90" fill="none" stroke="rgb(115, 161, 191)" stroke-width="1" d="M604.5,388.5C619.5,388.5,619.5,310.5,634.5,310.5L737.5,310.5"></path><path id="kity_path_98" fill="none" stroke="rgb(115, 161, 191)" stroke-width="1" d="M604.5,388.5C619.5,388.5,619.5,414.5,634.5,414.5L714.5,414.5"></path><path id="kity_path_106" fill="none" stroke="rgb(115, 161, 191)" stroke-width="1" d="M604.5,388.5C619.5,388.5,619.5,466.5,634.5,466.5L689.5,466.5"></path><path id="kity_path_122" fill="none" stroke="rgb(115, 161, 191)" stroke-width="1" d="M604.5,388.5C619.5,388.5,619.5,362.5,634.5,362.5L714.5,362.5"></path></g><g id="minder_node1"><path id="node_outline1" fill="rgb(115, 161, 191)" stroke="rgb(115, 161, 191)" d="M25.5,182.5h168a5,5,0,0,1,5,5v30a5,5,0,0,1,-5,5h-168a5,5,0,0,1,-5,-5v-30a5,5,0,0,1,5,-5z" stroke-width="3"></path><g id="node_text1" fill="white"><text id="kity_text_22" text-rendering="inherit" font-size="16" dy=".8em" y="192.09999990463257" x="44.5">性能测试核心概念</text></g></g><g id="kity_g_12"><path id="kity_path_13" fill="none" stroke="none" d="M44.5,202.5h0v0h0z"></path></g><g id="kity_g_14"><path id="kity_path_15" fill="none" stroke="none" d="M44.5,202.5h0v0h0z"></path><path id="kity_path_16" fill="none" stroke="none"></path></g><g id="minder_node2"><g id="node_expander1" style="cursor: pointer;"><path id="kity_path_36" fill="white" stroke="gray" d="M317.5,202.5A6,6,0,1,1,305.5,202.5A6,6,0,1,1,317.5,202.5"></path><path id="kity_path_37" fill="none" stroke="gray" d="M307,202.5L316,202.5"></path></g><path id="node_outline2" fill="rgb(238, 243, 246)" stroke="rgb(115, 161, 191)" d="M321.5,189.5h92a3,3,0,0,1,3,3v20a3,3,0,0,1,-3,3h-92a3,3,0,0,1,-3,-3v-20a3,3,0,0,1,3,-3z" stroke-width="1"></path><g id="node_text2" fill="black"><text id="kity_text_33" text-rendering="inherit" font-size="14" dy=".8em" y="193.40000009536743" x="338.5">性能测试</text></g></g><g id="minder_node3"><g id="node_expander2" style="cursor: pointer;" display="none"><path id="kity_path_44" fill="white" stroke="gray" d="M456.5,31.5A6,6,0,1,1,444.5,31.5A6,6,0,1,1,456.5,31.5"></path><path id="kity_path_45" fill="none" stroke="gray"></path></g><path id="node_outline3" fill="none" stroke="none" d="M461.5,20.5h215a5,5,0,0,1,5,5v12a5,5,0,0,1,-5,5h-215a5,5,0,0,1,-5,-5v-12a5,5,0,0,1,5,-5z" stroke-width="3"></path><g id="node_text3" fill="black"><text id="kity_text_41" text-rendering="inherit" font-size="12" dy=".8em" y="23.700000047683716" x="466.5">1、负载测试：Load Testing:用户数量</text></g></g><g id="minder_node4"><g id="node_expander3" style="cursor: pointer;" display="none"><path id="kity_path_52" fill="white" stroke="gray" d="M456.5,83.5A6,6,0,1,1,444.5,83.5A6,6,0,1,1,456.5,83.5"></path><path id="kity_path_53" fill="none" stroke="gray"></path></g><path id="node_outline4" fill="none" stroke="none" d="M461.5,72.5h303a5,5,0,0,1,5,5v12a5,5,0,0,1,-5,5h-303a5,5,0,0,1,-5,-5v-12a5,5,0,0,1,5,-5z" stroke-width="3"></path><g id="node_text4" fill="black"><text id="kity_text_49" text-rendering="inherit" font-size="12" dy=".8em" y="75.70000004768372" x="466.5">2、压力测试：Stress Testing:高压力，系统是怎么死的</text></g></g><g id="minder_node5"><g id="node_expander4" style="cursor: pointer;" display="none"><path id="kity_path_60" fill="white" stroke="gray" d="M456.5,135.5A6,6,0,1,1,444.5,135.5A6,6,0,1,1,456.5,135.5"></path><path id="kity_path_61" fill="none" stroke="gray"></path></g><path id="node_outline5" fill="none" stroke="none" d="M461.5,124.5h268a5,5,0,0,1,5,5v12a5,5,0,0,1,-5,5h-268a5,5,0,0,1,-5,-5v-12a5,5,0,0,1,5,-5z" stroke-width="3"></path><g id="node_text5" fill="black"><text id="kity_text_57" text-rendering="inherit" font-size="12" dy=".8em" y="127.70000004768372" x="466.5">3、容量测试 Volumn Testing：最大支撑的数量</text></g></g><g id="minder_node6"><g id="node_expander5" style="cursor: pointer;" display="none"><path id="kity_path_68" fill="white" stroke="gray" d="M456.5,190A6,6,0,1,1,444.5,190A6,6,0,1,1,456.5,190"></path><path id="kity_path_69" fill="none" stroke="gray"></path></g><path id="node_outline6" fill="none" stroke="none" d="M461.5,176.5h373a5,5,0,0,1,5,5v17a5,5,0,0,1,-5,5h-373a5,5,0,0,1,-5,-5v-17a5,5,0,0,1,5,-5z" stroke-width="3"></path><g id="node_text6" fill="black"><text id="kity_text_65" text-rendering="inherit" font-size="12" dy=".8em" y="181.70000004768372" x="466.5">4、响应时间 ：Response Time,从用户角度评价系统的处理速度</text></g><g id="kity_g_70" style="cursor: pointer;"><path id="kity_path_71" fill="none" stroke="none" d="M816,181h12a2,2,0,0,1,2,2v13a2,2,0,0,1,-2,2h-12a2,2,0,0,1,-2,-2v-13a2,2,0,0,1,2,-2z"></path><path id="kity_path_72" fill="black" stroke="none" d="M825,192H819V191h6L825,192L825,192zM825,190H819V189h6V190zM825,188H819V187h6V188zM824.5,194H818V185h8v7.5M825,195l2,-2V184H817v11"></path></g></g><g id="minder_node7"><g id="node_expander6" style="cursor: pointer;" display="none"><path id="kity_path_79" fill="white" stroke="gray" d="M456.5,244.5A6,6,0,1,1,444.5,244.5A6,6,0,1,1,456.5,244.5"></path><path id="kity_path_80" fill="none" stroke="gray"></path></g><path id="node_outline7" fill="none" stroke="none" d="M461.5,233.5h378a5,5,0,0,1,5,5v12a5,5,0,0,1,-5,5h-378a5,5,0,0,1,-5,-5v-12a5,5,0,0,1,5,-5z" stroke-width="3"></path><g id="node_text7" fill="black"><text id="kity_text_76" text-rendering="inherit" font-size="12" dy=".8em" y="236.70000004768372" x="466.5">5、吞吐量/吞吐率： IO，硬盘IO，网络IO，CPU内存，请求处理能力</text></g></g><g id="minder_node8"><g id="node_expander7" style="cursor: pointer;"><path id="kity_path_87" fill="white" stroke="gray" d="M456.5,374.5A6,6,0,1,1,444.5,374.5A6,6,0,1,1,456.5,374.5"></path><path id="kity_path_88" fill="none" stroke="gray" d="M446,374.5L455,374.5"></path></g><path id="node_outline8" fill="none" stroke="none" d="M461.5,363.5h138a5,5,0,0,1,5,5v12a5,5,0,0,1,-5,5h-138a5,5,0,0,1,-5,-5v-12a5,5,0,0,1,5,-5z" stroke-width="3"></path><g id="node_text8" fill="black"><text id="kity_text_84" text-rendering="inherit" font-size="12" dy=".8em" y="366.7000000476837" x="466.5">6、事务处理能力---TPS</text></g></g><g id="minder_node9"><g id="node_expander8" style="cursor: pointer;" display="none"><path id="kity_path_95" fill="white" stroke="gray" d="M644.5,296.5A6,6,0,1,1,632.5,296.5A6,6,0,1,1,644.5,296.5"></path><path id="kity_path_96" fill="none" stroke="gray"></path></g><path id="node_outline9" fill="none" stroke="none" d="M649.5,285.5h83a5,5,0,0,1,5,5v12a5,5,0,0,1,-5,5h-83a5,5,0,0,1,-5,-5v-12a5,5,0,0,1,5,-5z" stroke-width="3"></path><g id="node_text9" fill="black"><text id="kity_text_92" text-rendering="inherit" font-size="12" dy=".8em" y="288.7000000476837" x="654.5">打开一个页面</text></g></g><g id="minder_node10"><g id="node_expander9" style="cursor: pointer;" display="none"><path id="kity_path_103" fill="white" stroke="gray" d="M644.5,400.5A6,6,0,1,1,632.5,400.5A6,6,0,1,1,644.5,400.5"></path><path id="kity_path_104" fill="none" stroke="gray"></path></g><path id="node_outline10" fill="none" stroke="none" d="M649.5,389.5h60a5,5,0,0,1,5,5v12a5,5,0,0,1,-5,5h-60a5,5,0,0,1,-5,-5v-12a5,5,0,0,1,5,-5z" stroke-width="3"></path><g id="node_text10" fill="black"><text id="kity_text_100" text-rendering="inherit" font-size="12" dy=".8em" y="392.7000000476837" x="654.5">实现发贴</text></g></g><g id="minder_node11"><g id="node_expander10" style="cursor: pointer;" display="none"><path id="kity_path_111" fill="white" stroke="gray" d="M644.5,452.5A6,6,0,1,1,632.5,452.5A6,6,0,1,1,644.5,452.5"></path><path id="kity_path_112" fill="none" stroke="gray"></path></g><path id="node_outline11" fill="none" stroke="none" d="M649.5,441.5h35a5,5,0,0,1,5,5v12a5,5,0,0,1,-5,5h-35a5,5,0,0,1,-5,-5v-12a5,5,0,0,1,5,-5z" stroke-width="3"></path><g id="node_text11" fill="black"><text id="kity_text_108" text-rendering="inherit" font-size="12" dy=".8em" y="444.7000000476837" x="654.5">支付</text></g></g><g id="minder_node13"><g id="node_expander12" style="cursor: pointer;" display="none"><path id="kity_path_127" fill="white" stroke="gray" d="M644.5,348.5A6,6,0,1,1,632.5,348.5A6,6,0,1,1,644.5,348.5"></path><path id="kity_path_128" fill="none" stroke="gray"></path></g><path id="node_outline13" fill="none" stroke="none" d="M649.5,337.5h60a5,5,0,0,1,5,5v12a5,5,0,0,1,-5,5h-60a5,5,0,0,1,-5,-5v-12a5,5,0,0,1,5,-5z" stroke-width="3"></path><g id="node_text13" fill="black"><text id="kity_text_124" text-rendering="inherit" font-size="12" dy=".8em" y="340.7000000476837" x="654.5">实现登录</text></g></g></g></g></svg>